<svg width="1026" height="1026" viewBox="0 0 1026 1026" fill="none" xmlns="http://www.w3.org/2000/svg">
<rect width="1024" height="1024" transform="translate(0.53033 0.530334)" fill="white" style="fill:white;fill-opacity:1;"/>
<path d="M1024.53 896.53H0.53033" stroke="#5DB3F9" style="stroke:#5DB3F9;stroke:color(display-p3 0.3647 0.7020 0.9765);stroke-opacity:1;" stroke-width="1.5" stroke-miterlimit="10"/>
<path d="M1024.53 768.53H0.53033" stroke="#5DB3F9" style="stroke:#5DB3F9;stroke:color(display-p3 0.3647 0.7020 0.9765);stroke-opacity:1;" stroke-width="1.5" stroke-miterlimit="10"/>
<path d="M1024.53 640.53H0.53033" stroke="#5DB3F9" style="stroke:#5DB3F9;stroke:color(display-p3 0.3647 0.7020 0.9765);stroke-opacity:1;" stroke-width="1.5" stroke-miterlimit="10"/>
<path d="M1024.53 512.53H0.53033" stroke="#5DB3F9" style="stroke:#5DB3F9;stroke:color(display-p3 0.3647 0.7020 0.9765);stroke-opacity:1;" stroke-width="1.5" stroke-miterlimit="10"/>
<path d="M1024.53 384.53H0.53033" stroke="#5DB3F9" style="stroke:#5DB3F9;stroke:color(display-p3 0.3647 0.7020 0.9765);stroke-opacity:1;" stroke-width="1.5" stroke-miterlimit="10"/>
<path d="M1024.53 256.53H0.53033" stroke="#5DB3F9" style="stroke:#5DB3F9;stroke:color(display-p3 0.3647 0.7020 0.9765);stroke-opacity:1;" stroke-width="1.5" stroke-miterlimit="10"/>
<path d="M1024.53 128.53H0.53033" stroke="#5DB3F9" style="stroke:#5DB3F9;stroke:color(display-p3 0.3647 0.7020 0.9765);stroke-opacity:1;" stroke-width="1.5" stroke-miterlimit="10"/>
<path d="M896.53 1024.53V0.530334" stroke="#5DB3F9" style="stroke:#5DB3F9;stroke:color(display-p3 0.3647 0.7020 0.9765);stroke-opacity:1;" stroke-width="1.5" stroke-miterlimit="10"/>
<path d="M768.53 1024.53V0.530334" stroke="#5DB3F9" style="stroke:#5DB3F9;stroke:color(display-p3 0.3647 0.7020 0.9765);stroke-opacity:1;" stroke-width="1.5" stroke-miterlimit="10"/>
<path d="M640.53 1024.53V0.530334" stroke="#5DB3F9" style="stroke:#5DB3F9;stroke:color(display-p3 0.3647 0.7020 0.9765);stroke-opacity:1;" stroke-width="1.5" stroke-miterlimit="10"/>
<path d="M512.53 1024.53V0.530334" stroke="#5DB3F9" style="stroke:#5DB3F9;stroke:color(display-p3 0.3647 0.7020 0.9765);stroke-opacity:1;" stroke-width="1.5" stroke-miterlimit="10"/>
<path d="M384.53 1024.53V0.530334" stroke="#5DB3F9" style="stroke:#5DB3F9;stroke:color(display-p3 0.3647 0.7020 0.9765);stroke-opacity:1;" stroke-width="1.5" stroke-miterlimit="10"/>
<path d="M256.53 1024.53V0.530334" stroke="#5DB3F9" style="stroke:#5DB3F9;stroke:color(display-p3 0.3647 0.7020 0.9765);stroke-opacity:1;" stroke-width="1.5" stroke-miterlimit="10"/>
<path d="M128.53 1024.53V0.530334" stroke="#5DB3F9" style="stroke:#5DB3F9;stroke:color(display-p3 0.3647 0.7020 0.9765);stroke-opacity:1;" stroke-width="1.5" stroke-miterlimit="10"/>
<path d="M1024.53 0.530334L0.53033 1024.53" stroke="#5DB3F9" style="stroke:#5DB3F9;stroke:color(display-p3 0.3647 0.7020 0.9765);stroke-opacity:1;" stroke-width="1.5" stroke-miterlimit="10"/>
<path d="M1024.53 1024.53L0.53033 0.530334" stroke="#5DB3F9" style="stroke:#5DB3F9;stroke:color(display-p3 0.3647 0.7020 0.9765);stroke-opacity:1;" stroke-width="1.5" stroke-miterlimit="10"/>
<path d="M512.53 922.53C738.967 922.53 922.53 738.967 922.53 512.53C922.53 286.094 738.967 102.53 512.53 102.53C286.094 102.53 102.53 286.094 102.53 512.53C102.53 738.967 286.094 922.53 512.53 922.53Z" stroke="#5DB3F9" style="stroke:#5DB3F9;stroke:color(display-p3 0.3647 0.7020 0.9765);stroke-opacity:1;" stroke-width="1.5" stroke-miterlimit="10"/>
<path d="M512.53 768.53C653.915 768.53 768.53 653.915 768.53 512.53C768.53 371.145 653.915 256.53 512.53 256.53C371.145 256.53 256.53 371.145 256.53 512.53C256.53 653.915 371.145 768.53 512.53 768.53Z" stroke="#5DB3F9" style="stroke:#5DB3F9;stroke:color(display-p3 0.3647 0.7020 0.9765);stroke-opacity:1;" stroke-width="1.5" stroke-miterlimit="10"/>
<path d="M512.53 614.53C568.863 614.53 614.53 568.863 614.53 512.53C614.53 456.197 568.863 410.53 512.53 410.53C456.197 410.53 410.53 456.197 410.53 512.53C410.53 568.863 456.197 614.53 512.53 614.53Z" stroke="#5DB3F9" style="stroke:#5DB3F9;stroke:color(display-p3 0.3647 0.7020 0.9765);stroke-opacity:1;" stroke-width="1.5" stroke-miterlimit="10"/>
<path d="M0.530661 0.530665V1024.53H1024.53V0.530665H0.530661ZM1024.53 651.531C1024.53 665.771 1024.53 680.011 1024.45 694.261C1024.38 706.261 1024.24 718.251 1023.92 730.241C1023.21 756.371 1021.67 782.731 1017.03 808.581C1012.32 834.801 1004.63 859.201 992.501 883.021C980.581 906.431 965.011 927.861 946.431 946.431C927.851 965.001 906.431 980.581 883.021 992.501C859.201 1004.62 834.801 1012.32 808.581 1017.03C782.741 1021.68 756.381 1023.21 730.241 1023.92C718.251 1024.25 706.251 1024.38 694.261 1024.45C680.021 1024.54 665.781 1024.53 651.531 1024.53H373.531C359.291 1024.53 345.051 1024.53 330.801 1024.45C318.801 1024.38 306.811 1024.24 294.821 1023.92C268.691 1023.21 242.331 1021.67 216.481 1017.03C190.261 1012.32 165.861 1004.63 142.041 992.501C118.631 980.581 97.2007 965.011 78.6307 946.431C60.0607 927.851 44.4807 906.431 32.5607 883.021C20.4407 859.201 12.7407 834.801 8.03066 808.581C3.38066 782.741 1.85066 756.381 1.14066 730.241C0.810661 718.251 0.680661 706.251 0.610661 694.261C0.520661 680.021 0.530661 665.781 0.530661 651.531V373.531C0.530661 359.291 0.530661 345.051 0.610661 330.801C0.680661 318.801 0.820661 306.811 1.14066 294.821C1.85066 268.691 3.39066 242.331 8.03066 216.481C12.7407 190.261 20.4307 165.861 32.5607 142.041C44.4807 118.631 60.0507 97.2007 78.6307 78.6307C97.2107 60.0607 118.631 44.4807 142.041 32.5607C165.861 20.4407 190.261 12.7407 216.481 8.03066C242.321 3.38066 268.681 1.85067 294.821 1.14067C306.811 0.810665 318.811 0.680665 330.801 0.610665C345.041 0.520665 359.281 0.530665 373.531 0.530665H651.531C665.771 0.530665 680.011 0.530665 694.261 0.610665C706.261 0.680665 718.251 0.820665 730.241 1.14067C756.371 1.85067 782.731 3.39067 808.581 8.03066C834.801 12.7407 859.201 20.4307 883.021 32.5607C906.431 44.4807 927.861 60.0507 946.431 78.6307C965.001 97.2107 980.581 118.631 992.501 142.041C1004.62 165.861 1012.32 190.261 1017.03 216.481C1021.68 242.321 1023.21 268.681 1023.92 294.821C1024.25 306.811 1024.38 318.811 1024.45 330.801C1024.54 345.041 1024.53 359.281 1024.53 373.531V651.531Z" fill="#606060" style="fill:#606060;fill:color(display-p3 0.3765 0.3765 0.3765);fill-opacity:1;"/>
</svg>
