<svg width="890" height="890" viewBox="0 0 890 890" fill="none" xmlns="http://www.w3.org/2000/svg">
<circle cx="445" cy="445" r="425" stroke="url(#paint0_linear_1820_697)" stroke-width="40"/>
<path d="M108.25 462.266H781.932C781.976 462.266 781.998 462.271 782.006 462.272C782.014 462.274 782.02 462.275 782.026 462.278C782.041 462.284 782.074 462.302 782.109 462.338C782.145 462.373 782.163 462.405 782.17 462.421C782.173 462.427 782.174 462.433 782.176 462.441C782.177 462.448 782.182 462.471 782.182 462.516C782.182 462.561 782.177 462.584 782.176 462.592C782.174 462.6 782.173 462.606 782.17 462.612C782.164 462.627 782.145 462.659 782.109 462.695C782.074 462.731 782.041 462.748 782.026 462.755C782.02 462.757 782.014 462.76 782.006 462.761C781.998 462.763 781.975 462.766 781.932 462.766H108.25C108.205 462.766 108.182 462.763 108.175 462.761C108.167 462.76 108.161 462.757 108.154 462.755C108.139 462.748 108.107 462.731 108.071 462.695C108.036 462.659 108.018 462.627 108.012 462.612C108.009 462.606 108.008 462.6 108.006 462.592C108.004 462.584 108 462.561 108 462.516C108 462.471 108.004 462.448 108.006 462.441C108.008 462.433 108.009 462.427 108.012 462.421C108.018 462.405 108.036 462.373 108.071 462.338C108.107 462.302 108.139 462.285 108.154 462.278C108.161 462.275 108.167 462.274 108.175 462.272C108.182 462.271 108.205 462.266 108.25 462.266Z" fill="url(#paint1_linear_1820_697)" stroke="url(#paint2_linear_1820_697)" stroke-width="40"/>
<path d="M221.25 562.767H670.001C670.041 562.767 670.061 562.771 670.064 562.771C670.069 562.772 670.073 562.773 670.078 562.775C670.091 562.781 670.125 562.799 670.165 562.839C670.205 562.879 670.226 562.916 670.235 562.938C670.239 562.948 670.242 562.957 670.244 562.968C670.246 562.977 670.251 563.001 670.251 563.046C670.251 563.091 670.247 563.114 670.245 563.121C670.243 563.129 670.242 563.135 670.239 563.142C670.233 563.157 670.215 563.189 670.179 563.225C670.143 563.26 670.111 563.278 670.096 563.284C670.09 563.287 670.084 563.289 670.076 563.291C670.069 563.292 670.046 563.297 670.001 563.297H221.25C221.205 563.297 221.182 563.292 221.175 563.291C221.167 563.289 221.161 563.287 221.154 563.284C221.139 563.278 221.107 563.26 221.071 563.225C221.036 563.189 221.018 563.157 221.012 563.142C221.009 563.135 221.008 563.129 221.006 563.121C221.004 563.114 221 563.091 221 563.046C221 563.001 221.004 562.977 221.006 562.968C221.008 562.957 221.012 562.948 221.016 562.938C221.025 562.916 221.046 562.879 221.086 562.839C221.126 562.799 221.16 562.781 221.173 562.775C221.178 562.773 221.182 562.772 221.187 562.771C221.19 562.771 221.209 562.767 221.25 562.767Z" fill="url(#paint3_linear_1820_697)" stroke="url(#paint4_linear_1820_697)" stroke-width="40"/>
<path d="M297.279 663.296H593.714C593.753 663.296 593.774 663.3 593.78 663.301C593.788 663.303 593.795 663.305 593.804 663.309C593.824 663.318 593.863 663.34 593.906 663.383C593.95 663.427 593.973 663.466 593.981 663.486C593.985 663.494 593.987 663.502 593.988 663.509C593.99 663.516 593.993 663.536 593.993 663.576C593.993 663.615 593.989 663.634 593.988 663.639C593.987 663.644 593.987 663.649 593.984 663.654C593.979 663.667 593.961 663.701 593.921 663.741C593.881 663.78 593.843 663.802 593.821 663.811C593.812 663.815 593.803 663.818 593.792 663.82C593.783 663.822 593.759 663.827 593.714 663.827H297.279C297.235 663.827 297.211 663.822 297.201 663.82C297.191 663.818 297.182 663.815 297.172 663.811C297.15 663.802 297.112 663.78 297.072 663.741C297.032 663.701 297.014 663.667 297.009 663.654C297.007 663.649 297.006 663.644 297.005 663.639C297.004 663.634 297 663.615 297 663.576C297 663.536 297.004 663.516 297.005 663.509C297.006 663.502 297.009 663.494 297.013 663.486C297.021 663.466 297.044 663.427 297.087 663.383C297.13 663.34 297.169 663.318 297.189 663.309C297.198 663.305 297.205 663.303 297.213 663.301C297.22 663.3 297.24 663.296 297.279 663.296Z" fill="url(#paint5_linear_1820_697)" stroke="url(#paint6_linear_1820_697)" stroke-width="40"/>
<path d="M445.377 196C575.818 196 683.101 295.179 695.908 422.233H695.373C682.562 295.461 575.519 196.502 445.368 196.502C315.217 196.502 208.177 295.462 195.363 422.233H194.845C207.652 295.179 314.936 196 445.377 196Z" fill="url(#paint7_linear_1820_697)" stroke="url(#paint8_linear_1820_697)" stroke-width="40"/>
<defs>
<linearGradient id="paint0_linear_1820_697" x1="445" y1="0" x2="445" y2="890" gradientUnits="userSpaceOnUse">
<stop stop-color="#FA491B"/>
<stop offset="1" stop-color="#FA491B" stop-opacity="0.5"/>
</linearGradient>
<linearGradient id="paint1_linear_1820_697" x1="445.091" y1="442.266" x2="445.091" y2="482.767" gradientUnits="userSpaceOnUse">
<stop stop-color="#FA491B"/>
<stop offset="1" stop-color="#FA491B" stop-opacity="0.5"/>
</linearGradient>
<linearGradient id="paint2_linear_1820_697" x1="445.091" y1="442.266" x2="445.091" y2="482.767" gradientUnits="userSpaceOnUse">
<stop stop-color="#FA491B"/>
<stop offset="1" stop-color="#FA491B" stop-opacity="0.5"/>
</linearGradient>
<linearGradient id="paint3_linear_1820_697" x1="445.625" y1="542.767" x2="445.625" y2="583.296" gradientUnits="userSpaceOnUse">
<stop stop-color="#FA491B"/>
<stop offset="1" stop-color="#FA491B" stop-opacity="0.5"/>
</linearGradient>
<linearGradient id="paint4_linear_1820_697" x1="445.625" y1="542.767" x2="445.625" y2="583.296" gradientUnits="userSpaceOnUse">
<stop stop-color="#FA491B"/>
<stop offset="1" stop-color="#FA491B" stop-opacity="0.5"/>
</linearGradient>
<linearGradient id="paint5_linear_1820_697" x1="445.497" y1="643.296" x2="445.497" y2="683.826" gradientUnits="userSpaceOnUse">
<stop stop-color="#FA491B"/>
<stop offset="1" stop-color="#FA491B" stop-opacity="0.5"/>
</linearGradient>
<linearGradient id="paint6_linear_1820_697" x1="445.497" y1="643.296" x2="445.497" y2="683.826" gradientUnits="userSpaceOnUse">
<stop stop-color="#FA491B"/>
<stop offset="1" stop-color="#FA491B" stop-opacity="0.5"/>
</linearGradient>
<linearGradient id="paint7_linear_1820_697" x1="445.377" y1="176" x2="445.377" y2="450.708" gradientUnits="userSpaceOnUse">
<stop stop-color="#FA491B"/>
<stop offset="1" stop-color="#FA491B" stop-opacity="0.5"/>
</linearGradient>
<linearGradient id="paint8_linear_1820_697" x1="445.377" y1="176" x2="445.377" y2="482.734" gradientUnits="userSpaceOnUse">
<stop stop-color="#FA491B"/>
<stop offset="1" stop-color="#FA491B" stop-opacity="0.5"/>
</linearGradient>
</defs>
</svg>
