<svg width="1024" height="1024" viewBox="0 0 1024 1024" fill="none" xmlns="http://www.w3.org/2000/svg">
<circle cx="512.4" cy="512.4" r="389.4" stroke="url(#paint0_linear_5497_5629)" stroke-width="40"/>
<mask id="path-2-inside-1_5497_5629" fill="white">
<path fill-rule="evenodd" clip-rule="evenodd" d="M287.922 621.002C287.922 610.71 296.259 602.345 306.552 602.345H719.402C729.695 602.345 738.033 610.71 738.033 621.002C738.033 631.295 729.695 639.633 719.402 639.633H306.552C296.259 639.633 287.922 631.295 287.922 621.002Z"/>
</mask>
<path d="M287.922 621.002H327.922C327.922 632.725 318.426 642.345 306.552 642.345V602.345V562.345C274.092 562.345 247.922 588.694 247.922 621.002H287.922ZM306.552 602.345V642.345H719.402V602.345V562.345H306.552V602.345ZM719.402 602.345V642.345C707.528 642.345 698.033 632.725 698.033 621.002H738.033H778.033C778.033 588.694 751.862 562.345 719.402 562.345V602.345ZM738.033 621.002H698.033C698.033 609.204 707.604 599.633 719.402 599.633V639.633V679.633C751.787 679.633 778.033 653.387 778.033 621.002H738.033ZM719.402 639.633V599.633H306.552V639.633V679.633H719.402V639.633ZM306.552 639.633V599.633C318.351 599.633 327.922 609.204 327.922 621.002H287.922H247.922C247.922 653.387 274.168 679.633 306.552 679.633V639.633Z" fill="url(#paint1_linear_5497_5629)" mask="url(#path-2-inside-1_5497_5629)"/>
<mask id="path-4-inside-2_5497_5629" fill="white">
<path fill-rule="evenodd" clip-rule="evenodd" d="M357.842 713.49C357.842 703.197 366.206 694.833 376.499 694.833H649.218C659.511 694.833 667.876 703.197 667.876 713.49C667.876 723.783 659.511 732.12 649.218 732.12H376.499C366.206 732.12 357.842 723.783 357.842 713.49Z"/>
</mask>
<path d="M357.842 713.49H397.842C397.842 725.288 388.298 734.833 376.499 734.833V694.833V654.833C344.115 654.833 317.842 681.105 317.842 713.49H357.842ZM376.499 694.833V734.833H649.218V694.833V654.833H376.499V694.833ZM649.218 694.833V734.833C637.42 734.833 627.876 725.288 627.876 713.49H667.876H707.876C707.876 681.105 681.603 654.833 649.218 654.833V694.833ZM667.876 713.49H627.876C627.876 701.616 637.496 692.12 649.218 692.12V732.12V772.12C681.527 772.12 707.876 745.95 707.876 713.49H667.876ZM649.218 732.12V692.12H376.499V732.12V772.12H649.218V732.12ZM376.499 732.12V692.12C388.222 692.12 397.842 701.616 397.842 713.49H357.842H317.842C317.842 745.95 344.191 772.12 376.499 772.12V732.12Z" fill="url(#paint2_linear_5497_5629)" mask="url(#path-4-inside-2_5497_5629)"/>
<path d="M783 510H243C243 369.72 363.883 256 513 256C662.117 256 783 369.72 783 510Z" fill="url(#paint3_linear_5497_5629)"/>
<mask id="path-7-inside-3_5497_5629" fill="white">
<path fill-rule="evenodd" clip-rule="evenodd" d="M183.961 528.515C183.961 518.222 192.298 509.885 202.591 509.885H822.378C832.671 509.885 841.008 518.222 841.008 528.515C841.008 538.808 832.671 547.146 822.378 547.146H202.591C192.298 547.146 183.961 538.808 183.961 528.515Z"/>
</mask>
<path d="M183.961 528.515H223.961C223.961 540.314 214.39 549.885 202.591 549.885V509.885V469.885C170.207 469.885 143.961 496.131 143.961 528.515H183.961ZM202.591 509.885V549.885H822.378V509.885V469.885H202.591V509.885ZM822.378 509.885V549.885C810.579 549.885 801.008 540.314 801.008 528.515H841.008H881.008C881.008 496.131 854.762 469.885 822.378 469.885V509.885ZM841.008 528.515H801.008C801.008 516.717 810.579 507.146 822.378 507.146V547.146V587.146C854.762 587.146 881.008 560.9 881.008 528.515H841.008ZM822.378 547.146V507.146H202.591V547.146V587.146H822.378V547.146ZM202.591 547.146V507.146C214.39 507.146 223.961 516.717 223.961 528.515H183.961H143.961C143.961 560.9 170.207 587.146 202.591 587.146V547.146Z" fill="url(#paint4_linear_5497_5629)" mask="url(#path-7-inside-3_5497_5629)"/>
<defs>
<linearGradient id="paint0_linear_5497_5629" x1="512.4" y1="103" x2="512.4" y2="1017.26" gradientUnits="userSpaceOnUse">
<stop stop-color="#FA491B"/>
<stop offset="1" stop-color="#FA491B" stop-opacity="0.5"/>
</linearGradient>
<linearGradient id="paint1_linear_5497_5629" x1="512.977" y1="602.345" x2="512.977" y2="643.98" gradientUnits="userSpaceOnUse">
<stop stop-color="#FA491B" stop-opacity="0.5"/>
<stop offset="1" stop-color="#FA491B"/>
</linearGradient>
<linearGradient id="paint2_linear_5497_5629" x1="512.859" y1="694.833" x2="512.859" y2="736.467" gradientUnits="userSpaceOnUse">
<stop stop-color="#FA491B" stop-opacity="0.5"/>
<stop offset="1" stop-color="#FA491B"/>
</linearGradient>
<linearGradient id="paint3_linear_5497_5629" x1="513" y1="256" x2="513" y2="539.612" gradientUnits="userSpaceOnUse">
<stop stop-color="#FA491B" stop-opacity="0.5"/>
<stop offset="1" stop-color="#FA491B"/>
</linearGradient>
<linearGradient id="paint4_linear_5497_5629" x1="512.485" y1="509.885" x2="512.485" y2="551.49" gradientUnits="userSpaceOnUse">
<stop stop-color="#FA491B"/>
<stop offset="1" stop-color="#FA491B" stop-opacity="0.5"/>
</linearGradient>
</defs>
</svg>
